<svg width="54" height="54" viewBox="0 0 54 54" fill="none" xmlns="http://www.w3.org/2000/svg">
<path d="M27 7.10352C32.0994 7.10352 36.8198 8.00264 40.3502 9.54746C42.111 10.3188 43.6756 11.2928 44.8282 12.4872C45.897 13.5891 46.6903 14.973 46.8159 16.5774L46.8336 17.0203V39.0576C46.8336 40.8515 45.9939 42.3853 44.8282 43.5907C43.6756 44.7851 42.111 45.7592 40.3502 46.5305C36.8198 48.0731 32.0994 48.9744 27 48.9744C21.9005 48.9744 17.1801 48.0753 13.6498 46.5305C11.889 45.7592 10.3243 44.7851 9.17178 43.5907C8.10297 42.4888 7.30962 41.1049 7.18401 39.5006L7.16638 39.0576V17.0203C7.16638 15.2265 8.006 13.6927 9.17178 12.4872C10.3243 11.2928 11.889 10.3188 13.6498 9.54746C17.1801 8.00484 21.9005 7.10352 27 7.10352ZM42.4261 34.4452C41.758 34.8455 41.0646 35.2018 40.3502 35.5118C36.8198 37.0544 32.0994 37.9558 27 37.9558C21.9005 37.9558 17.1801 37.0566 13.6498 35.5118C12.9353 35.2018 12.2419 34.8455 11.5738 34.4452V39.0576C11.5738 39.3926 11.7193 39.8862 12.3407 40.5275C12.971 41.1798 13.9891 41.8674 15.4172 42.4933C18.2688 43.7406 22.3611 44.567 27 44.567C31.6388 44.567 35.7312 43.7406 38.5828 42.4933C40.0108 41.8674 41.0289 41.1798 41.6592 40.5275C42.2807 39.8884 42.4261 39.3926 42.4261 39.0576V34.4452ZM42.4261 23.4266C41.758 23.8268 41.0646 24.1831 40.3502 24.4932C36.8198 26.0358 32.0994 26.9371 27 26.9371C21.9005 26.9371 17.1801 26.038 13.6498 24.4932C12.9353 24.1832 12.2419 23.8269 11.5738 23.4266V28.039C11.5738 28.3739 11.7193 28.8676 12.3407 29.5089C12.971 30.1612 13.9891 30.8487 15.4172 31.4746C18.2688 32.7219 22.3611 33.5483 27 33.5483C31.6388 33.5483 35.7312 32.7219 38.5828 31.4746C40.0108 30.8487 41.0289 30.1612 41.6592 29.5089C42.2807 28.8698 42.4261 28.3739 42.4261 28.039V23.4266ZM27 11.511C22.3611 11.511 18.2688 12.3374 15.4172 13.5847C13.9891 14.2106 12.971 14.8981 12.3407 15.5504C11.7193 16.1895 11.5738 16.6853 11.5738 17.0203C11.5738 17.3553 11.7193 17.8489 12.3407 18.4902C12.971 19.1425 13.9891 19.8301 15.4172 20.4559C18.2688 21.7032 22.3611 22.5296 27 22.5296C31.6388 22.5296 35.7312 21.7032 38.5828 20.4559C40.0108 19.8301 41.0289 19.1425 41.6592 18.4902C42.2807 17.8511 42.4261 17.3553 42.4261 17.0203C42.4261 16.6853 42.2807 16.1917 41.6592 15.5504C41.0289 14.8981 40.0108 14.2106 38.5828 13.5847C35.7312 12.3374 31.6388 11.511 27 11.511Z" fill="black"/>
</svg>
