<svg width="53" height="54" viewBox="0 0 53 54" fill="none" xmlns="http://www.w3.org/2000/svg">
<path fill-rule="evenodd" clip-rule="evenodd" d="M24.8747 26.4742L25.3727 26.5844L33.5618 28.6295C36.1423 29.2752 37.4403 31.9968 36.625 34.4473L37.3302 33.9625L38.7538 32.9444C39.47 32.4375 40.2016 31.9571 40.9619 31.5781C44.3468 29.8856 48.3092 32.2194 48.5472 35.9216L48.5582 36.2742V36.3954C48.5582 37.9314 47.8971 39.3859 46.7511 40.393L46.4272 40.6575L39.6617 45.7304C39.0028 46.2241 38.2601 46.5899 37.4712 46.8103L36.9908 46.9249L29.9168 48.3397C27.7198 48.7784 25.4412 48.537 23.3849 47.6477L22.8296 47.3899L17.6508 44.8005C17.4223 44.6852 17.1755 44.6106 16.9214 44.5801L16.6658 44.5669H14.9116C14.5564 45.1823 14.0576 45.7026 13.4579 46.0837C12.8581 46.4647 12.1752 46.6951 11.4671 46.7552L11.0947 46.7706H8.89099C7.77903 46.771 6.70804 46.351 5.8927 45.5949C5.07736 44.8388 4.57794 43.8025 4.49454 42.6937L4.48352 42.3631V33.5482C4.48372 32.4366 4.90393 31.3662 5.65995 30.5513C6.41598 29.7365 7.45199 29.2373 8.56043 29.154L8.89099 29.1407H11.0947C12.1613 29.1407 13.1398 29.5198 13.9023 30.1523L14.1777 30.3991L18.5632 27.6598C20.2943 26.5775 22.3475 26.1296 24.3722 26.3927L24.8747 26.4742ZM20.8991 31.3974L15.5022 34.7691V40.1594H16.6658C17.6924 40.1595 18.705 40.3987 19.6232 40.858L24.8019 43.4474C26.117 44.1045 27.6136 44.3046 29.0551 44.0159L36.1269 42.6011C36.4496 42.5372 36.7539 42.4016 37.0172 42.2045L43.7827 37.1293C44.0648 36.9177 44.1507 36.607 44.1507 36.272C44.1508 36.1366 44.1181 36.0031 44.0556 35.883C43.9931 35.7629 43.9025 35.6596 43.7915 35.582C43.6806 35.5043 43.5525 35.4546 43.4182 35.437C43.284 35.4194 43.1474 35.4344 43.0202 35.4809L37.6695 39.0509C36.5828 39.7747 35.306 40.1604 34.0003 40.1594H26.5208V35.7519H29.9565C30.4188 35.7516 30.8693 35.6058 31.2442 35.3353C31.6192 35.0648 31.8995 34.6832 32.0456 34.2446L32.493 32.9047L24.3039 30.8597C23.7294 30.7159 23.1318 30.6895 22.5468 30.7819C21.9618 30.8743 21.4014 31.0836 20.8991 31.3974ZM11.0947 33.5482H8.89099V42.3631H11.0947V33.5482ZM35.3358 8.13918C37.6056 6.71997 40.2104 6.83237 42.3128 8.05764C44.7633 9.48566 46.425 12.3373 46.3522 15.5988C46.2619 19.6427 43.245 22.9681 38.7758 25.736L37.8987 26.2627C37.1098 26.7299 36.268 27.1838 35.3358 27.1838C34.4036 27.1838 33.5618 26.7299 32.7728 26.2627L31.8958 25.7338C27.4244 22.9659 24.4097 19.6427 24.3171 15.5966C24.2444 12.3351 25.906 9.48345 28.3566 8.05544C30.4589 6.83016 33.0615 6.71777 35.3336 8.13697L35.3358 8.13918ZM40.0936 11.8657C39.2584 11.3809 38.2645 11.3236 37.2773 12.1654L36.8233 12.5841C36.4005 12.9206 35.8761 13.1038 35.3358 13.1038C34.7954 13.1038 34.2711 12.9206 33.8483 12.5841L33.3943 12.1654C32.4048 11.3236 31.4109 11.3787 30.5779 11.8657C29.562 12.4585 28.6871 13.7829 28.7268 15.5018C28.7642 17.2164 30.0887 19.4245 34.1656 21.9566L34.6901 22.2739L35.3358 22.6508L35.9815 22.2761C40.4705 19.6052 41.9051 17.2847 41.947 15.4952C41.9866 13.7785 41.1118 12.4541 40.0958 11.8613L40.0936 11.8657Z" fill="black"/>
</svg>
