<svg width="48" height="49" viewBox="0 0 48 49" fill="none" xmlns="http://www.w3.org/2000/svg">
<path d="M24.9033 18.6159L24.9031 23.6388V23.6388V23.6973C24.9031 23.8138 24.9181 23.9268 24.9463 24.0346L24.8985 24.8523L24.896 24.8963C24.8848 25.0879 24.8101 25.2556 24.684 25.3819L26.1265 24.4369C26.0443 24.4234 25.9622 24.3943 25.8803 24.3497L25.4841 24.134V23.6973V23.6388V18.6159M24.9033 18.6159V18.6159L25.1937 18.6159L25.4841 18.6159M24.9033 18.6159C24.9033 18.7763 25.0336 18.9063 25.1937 18.9063C25.3542 18.9063 25.4841 18.776 25.4841 18.6159M24.9033 18.6159H25.1937H25.4841M19.283 18.1669L19.2831 18.167L19.283 18.1669ZM19.283 18.1669C19.0701 18.538 18.5583 18.6765 18.1847 18.4619L19.283 18.1669ZM17.852 19.0396L17.8514 19.0393C17.577 18.8809 17.3792 18.6214 17.2973 18.3174L17.2972 18.3169L17.2972 18.3168L17.2968 18.3153C17.2302 18.0648 17.247 17.8027 17.3428 17.5652V17.3707C17.172 17.6657 17.1263 18.0099 17.2146 18.339C17.3025 18.6679 17.5139 18.9429 17.8093 19.1141L17.852 19.0396ZM25.0955 25.793L25.1555 25.8531L25.0954 25.793L25.0948 25.7937C24.844 26.044 24.5075 26.1822 24.1543 26.1822C24.1543 26.1822 24.1542 26.1822 24.1542 26.1822C23.6741 26.1821 23.253 25.927 23.0192 25.545C22.9951 25.5573 22.9708 25.5692 22.9462 25.5806L25.0955 25.793ZM17.9192 17.7056C17.8375 17.8473 17.8163 18.0088 17.8585 18.166C17.8585 18.1661 17.8585 18.1661 17.8585 18.1662L17.8586 18.1663L17.8587 18.1669C17.9005 18.3233 17.9989 18.4528 18.1417 18.5363C18.1418 18.5363 18.1418 18.5363 18.1419 18.5364L17.9192 17.7056Z" fill="#4CAF4F" stroke="#4CAF4F" stroke-width="1.33333"/>
<path d="M16.1251 31.0139C15.9465 31.1213 15.7157 31.0634 15.6089 30.885C15.502 30.7069 15.5599 30.4758 15.7378 30.3688L16.1251 31.0139ZM11.7467 26.6492C11.7614 26.6228 11.7751 26.5981 11.7877 26.5753C11.839 26.4829 11.8737 26.4204 11.8876 26.3953L11.9634 26.4352C11.9166 26.5196 11.8707 26.6024 11.8256 26.6836C11.7992 26.6736 11.7729 26.6622 11.7467 26.6492ZM22.1552 28.9432C22.3074 28.8518 22.4149 28.7071 22.4577 28.5354C22.5006 28.3639 22.474 28.1855 22.3828 28.0333L22.1552 28.9432Z" fill="#4CAF4F" stroke="#4CAF4F" stroke-width="1.33333"/>
<path d="M27.8527 28.3154C27.7587 28.2571 27.6732 28.188 27.5976 28.11L26.8782 27.7337L26.8782 27.7337L26.8381 27.7127C26.7243 27.6532 26.6083 27.6249 26.4965 27.6247L27.8527 28.3154ZM26.1717 27.0841C26.1718 27.084 26.1719 27.084 26.1721 27.084L26.2275 27.3062L26.2275 27.3062L26.3126 27.6477L26.3125 27.6477L26.1717 27.0841ZM30.3872 34.0077C30.387 34.0076 30.3869 34.0075 30.3867 34.0074L30.3872 34.0077ZM25.845 30.4093L25.8464 30.4101L25.845 30.4093Z" fill="#4CAF4F" stroke="#4CAF4F" stroke-width="1.33333"/>
</svg>
