<svg width="48" height="49" viewBox="0 0 48 49" fill="none" xmlns="http://www.w3.org/2000/svg">
<path d="M23.2959 29.7691L23.9032 29.2582C25.7083 27.7397 27.0027 25.7029 27.6111 23.4239C28.2194 21.1449 28.1122 18.734 27.3041 16.5179C26.4959 14.3019 25.0259 12.388 23.0933 11.0356C21.1606 9.6833 18.8589 8.95797 16.5001 8.95797C14.1413 8.95797 11.8396 9.6833 9.90694 11.0356C7.9743 12.388 6.50426 14.3019 5.69612 16.5179C4.88797 18.734 4.78081 21.1449 5.38916 23.4239C5.99751 25.7029 7.29195 27.7397 9.09698 29.2582L9.70433 29.7691L8.98125 30.0963C6.00808 31.4418 3.44959 33.5591 1.57179 36.2282L23.2959 29.7691ZM23.2959 29.7691L24.019 30.0963M23.2959 29.7691L24.019 30.0963M24.019 30.0963C26.9923 31.4418 29.5508 33.5593 31.4287 36.2285L31.4358 36.2387L31.4435 36.2485C31.5893 36.4353 31.6957 36.6499 31.7562 36.8792C31.8166 37.1084 31.8298 37.3475 31.795 37.5821C31.7602 37.8166 31.6782 38.0416 31.5538 38.2434C31.4294 38.4452 31.2653 38.6197 31.0714 38.7562C30.8776 38.8926 30.658 38.9883 30.4261 39.0374C30.1941 39.0864 29.9547 39.0878 29.7221 39.0415C29.4896 38.9952 29.2689 38.9022 29.0735 38.768C28.878 38.6338 28.7119 38.4613 28.5851 38.261L28.5787 38.2508L28.5718 38.241C27.2111 36.3029 25.4037 34.721 23.3026 33.6289C21.2014 32.5368 18.8682 31.9666 16.5001 31.9666C14.1321 31.9666 11.7988 32.5368 9.69765 33.6289C7.59647 34.721 5.78912 36.3029 4.42839 38.241L4.42728 38.2426C4.26732 38.4723 4.05404 38.6598 3.80573 38.789C3.55741 38.9183 3.28147 38.9854 3.00154 38.9845L2.99848 38.9845C2.63947 38.9857 2.28918 38.874 1.99711 38.6653L1.9947 38.6636M24.019 30.0963L1.9947 38.6636M1.9947 38.6636C1.61613 38.3963 1.359 37.9899 1.27972 37.5333C1.20046 37.0769 1.30541 36.6077 1.57154 36.2285L1.9947 38.6636ZM46.2902 38.6611L46.2902 38.6611C46.4788 38.5304 46.6395 38.3635 46.7629 38.1701C46.8864 37.9767 46.9702 37.7607 47.0095 37.5346C47.0487 37.3086 47.0427 37.077 46.9916 36.8533C46.9406 36.6296 46.8456 36.4182 46.7121 36.2316L46.7099 36.2285C44.8321 33.5593 42.2735 31.4418 39.3002 30.0963L38.5751 29.7682L39.1854 29.2574C40.9953 27.7425 42.2943 25.7066 42.9056 23.4269C43.5169 21.1472 43.4108 18.7345 42.6017 16.5173C41.7926 14.3001 40.3198 12.3862 38.3839 11.036C36.448 9.6859 34.143 8.96519 31.7828 8.97204L31.7805 8.97205C30.7302 8.9703 29.6847 9.11533 28.6745 9.40294L28.6655 9.40549L28.6655 9.40541C28.4411 9.46479 28.2308 9.56821 28.0468 9.70966C27.8627 9.8511 27.7087 10.0277 27.5936 10.2293C27.4785 10.4309 27.4046 10.6533 27.3763 10.8837C27.348 11.114 27.3658 11.3478 27.4286 11.5712C27.4915 11.7946 27.5982 12.0033 27.7425 12.1851L27.364 12.4855L27.7425 12.1851C27.8868 12.3669 28.0658 12.5182 28.2691 12.6302C28.4725 12.7421 28.696 12.8125 28.9268 12.8372C29.1576 12.8619 29.391 12.8405 29.6134 12.7742L29.6192 12.7724L29.6192 12.7725C30.3227 12.5718 31.0508 12.4707 31.7823 12.472M46.2902 38.6611L43.4439 38.5283L43.8525 38.2402C43.8524 38.24 43.8523 38.2398 43.8521 38.2396C42.4886 36.3054 40.6809 34.7266 38.5806 33.636C36.4802 32.5453 34.1487 31.9746 31.7819 31.972H31.7814C31.3172 31.972 30.8721 31.7877 30.5439 31.4595C30.2157 31.1313 30.0314 30.6862 30.0314 30.222C30.0314 29.7579 30.2157 29.3128 30.5439 28.9846C30.8721 28.6564 31.3172 28.472 31.7814 28.472C33.9031 28.472 35.9379 27.6292 37.4382 26.1289C38.9385 24.6286 39.7814 22.5938 39.7814 20.472C39.7814 18.3503 38.9385 16.3155 37.4382 14.8152C35.9381 13.3151 33.9037 12.4723 31.7823 12.472M46.2902 38.6611L46.2844 38.6653M46.2902 38.6611L46.2844 38.6653M31.7823 12.472L31.7814 12.972V12.472C31.7817 12.472 31.782 12.472 31.7823 12.472ZM39.5064 29.6408L39.7125 29.1853C39.7813 29.2164 39.8498 29.2479 39.9182 29.2798C39.7839 29.403 39.6466 29.5234 39.5064 29.6408ZM39.5064 29.6408L39.8273 30.0242C39.8864 29.9748 39.9449 29.9248 40.003 29.8743C39.8387 29.7942 39.6732 29.7163 39.5064 29.6408ZM46.2844 38.6653C45.9924 38.8739 45.6424 38.9856 45.2836 38.9846L46.2844 38.6653ZM9.84835 16.0275C8.9693 17.3431 8.50011 18.8898 8.50011 20.472C8.50011 22.5938 9.34296 24.6286 10.8433 26.1289C12.3435 27.6292 14.3784 28.472 16.5001 28.472C18.0824 28.472 19.6291 28.0029 20.9447 27.1238C22.2603 26.2448 23.2856 24.9953 23.8911 23.5335C24.4966 22.0717 24.6551 20.4632 24.3464 18.9113C24.0377 17.3595 23.2758 15.934 22.157 14.8152C21.0381 13.6964 19.6127 12.9344 18.0608 12.6258C16.509 12.3171 14.9004 12.4755 13.4386 13.081C11.9768 13.6865 10.7274 14.7119 9.84835 16.0275Z" fill="#4CAF4F" stroke="#4CAF4F"/>
</svg>
