<svg width="54" height="54" viewBox="0 0 54 54" fill="none" xmlns="http://www.w3.org/2000/svg">
<g clip-path="url(#clip0_14_1561)">
<path d="M42.4053 9.30664C44.1587 9.30664 45.8403 10.0032 47.0802 11.243C48.32 12.4829 49.0165 14.1644 49.0165 15.9178V37.9552C49.0165 39.7086 48.32 41.3901 47.0802 42.63C45.8403 43.8698 44.1587 44.5664 42.4053 44.5664H11.5531C9.79969 44.5664 8.11811 43.8698 6.87827 42.63C5.63843 41.3901 4.94189 39.7086 4.94189 37.9552V15.9178C4.94189 14.1644 5.63843 12.4829 6.87827 11.243C8.11811 10.0032 9.79969 9.30664 11.5531 9.30664H42.4053ZM44.6091 22.529H9.34936V37.9552C9.34943 38.4949 9.5476 39.0159 9.90628 39.4193C10.265 39.8226 10.7592 40.0803 11.2953 40.1435L11.5531 40.1589H42.4053C42.9451 40.1588 43.4661 39.9607 43.8694 39.602C44.2728 39.2433 44.5305 38.7491 44.5937 38.213L44.6091 37.9552V22.529ZM37.9979 29.1402C38.5596 29.1409 39.0998 29.3559 39.5083 29.7415C39.9167 30.1271 40.1625 30.6541 40.1954 31.2148C40.2283 31.7755 40.0459 32.3277 39.6854 32.7584C39.3249 33.1891 38.8135 33.4659 38.2557 33.5323L37.9979 33.5477H31.3867C30.825 33.5471 30.2847 33.332 29.8763 32.9464C29.4679 32.5608 29.2221 32.0338 29.1892 31.4731C29.1563 30.9124 29.3387 30.3603 29.6992 29.9295C30.0597 29.4988 30.5711 29.222 31.1289 29.1557L31.3867 29.1402H37.9979ZM42.4053 13.7141H11.5531C10.9686 13.7141 10.4081 13.9463 9.99482 14.3596C9.58154 14.7728 9.34936 15.3334 9.34936 15.9178V18.1216H44.6091V15.9178C44.6091 15.3334 44.3769 14.7728 43.9636 14.3596C43.5503 13.9463 42.9898 13.7141 42.4053 13.7141Z" fill="black"/>
</g>
<defs>
<clipPath id="clip0_14_1561">
<rect width="52.8896" height="52.8896" fill="white" transform="translate(0.534424 0.492188)"/>
</clipPath>
</defs>
</svg>
